<?xml version="1.0" ?><svg style="enable-background:new 0 0 48 48;" version="1.1" viewBox="0 0 48 48" xml:space="preserve" xmlns="http://www.w3.org/2000/svg" xmlns:xlink="http://www.w3.org/1999/xlink"><g id="Icons"><g><path d="M8.54145,34.31312c9.0909,11.6293,21.9006,11.1863,30.9171,0.1821l-2.0285-1.0569l-26.7312-0.1397    L8.54145,34.31312z" style="fill:#BFE1FF;"/><path d="M19.94355,28.79932c0,0,0.4099,3.1823-1.8717,3.4669c-2.2817,0.2846-6.9778,0.6753-7.6922,1.1721    c0,0,5.504,7.1777,12.9931,7.1842c7.7048,0.0068,12.0236-4.9988,14.0573-7.1842c0,0-3.1639-0.7108-5.6494-0.9323    c-2.4855-0.2215-4.1934-0.5308-3.7079-3.7067H19.94355z" style="fill:#FFE7D7;"/><path d="M28.07345,28.80412c-0.05,0.28-0.0826,0.6596-0.0826,0.8996    c-0.9001,0.84-1.6874,1.4804-2.9574,1.7404c-2.2,0.47-3.5919-0.3618-5.0719-1.7418c0.02-0.38-0.0081-0.8282-0.0181-0.8882v-0.01    H28.07345z" style="fill:#DDBEA8;"/><path d="M31.30015,16.98922c0.0718,1.9242-0.628,4.6188-0.628,4.6188    c-0.1154,0.9007-0.2206,1.5486-0.2301,2.1442c-0.0297,1.8613,0.1202,2.7094-2.3693,5.0471    c-0.9337,0.869-1.7419,1.6582-3.0438,1.9331c-2.2178,0.4611-3.6094-0.5321-5.0909-1.9331    c-2.5216-2.3679-2.3206-3.1381-2.3056-5.0469c0.0046-0.5788-0.5765-1.5303-0.6873-2.3947c0,0-0.3047-1.9998-0.1431-4.2963" style="fill:#FFE7D7;"/><path d="M17.63235,23.75222c-0.4451-1.4115-0.8421-1.3947-2.1621-3.6312    c-1.32-2.2364,0.0104-5.5015,0.0104-5.5015l1.7436,2.7167C16.14105,17.40862,17.59135,21.06772,17.63235,23.75222z" style="fill:#E5AB05;"/><path d="M32.57005,14.70272c0,0,1.354,3.1819,0.0341,5.4183c-1.3201,2.2365-2.1702,2.6316-2.1621,3.6312    c0-2.9545,1.5489-7.1704,0.0781-6.3436L32.57005,14.70272z" style="fill:#E5AB05;"/><path d="M29.54285,10.99182c-0.1048-0.1716-0.1906-0.4196-0.162-0.7913    c0.0096-0.1526,0.0381-0.3338,0.0954-0.534c0.5625-2.0308-2.0499-3.0796-2.0499-3.0796s-3.0606-3.3276-6.7981,0    c0,0-2.622,1.0488-2.0594,3.0796c0.1906,0.6769,0.0858,1.0869-0.0764,1.3253" style="fill:#FFD24A;"/><path d="M18.72135,10.19622c0,0,2.8169,0.0306,4.2815-0.5081c1.4646-0.5388,1.8843-0.0219,1.8843-0.0219    s3.317,0.532,4.5033,0.4367l0.1524,0.8889c0,0-4.1943,1.2261-5.4107,1.5258c-1.2165,0.2997-5.3373-1.4985-5.5434-1.4423    C18.38275,11.13152,18.72135,10.19622,18.72135,10.19622z" style="fill:#1D97FF;"/><ellipse cx="24.05565" cy="10.55154" rx="1.1525" ry="1.50325" style="fill:#FFFFFF;"/><path d="M22.14205,11.84922c0,0-4.9148-2.1851-6.2958,0.4257c-1.381,2.6107,0.1218,5.7708,4.2649,5.6917    c3.7194,1.6398,7.7827,0,7.7827,0c4.1431,0.0791,5.646-3.081,4.2649-5.6917c-1.381-2.6108-6.2958-0.4257-6.2958-0.4257    S24.00145,12.92672,22.14205,11.84922z" style="fill:#FFD24A;"/><path d="M24.87755,26.56072c-0.7427-0.1446-0.8219,0.1076-0.8219,0.1076s-0.0793-0.2522-0.822-0.1076    c-0.7428,0.145-1.0498,0.1288-1.3469,0.0606c0,0,0.8913,1.2885,2.1689,1.2732c1.2775,0.0153,2.1688-1.2732,2.1688-1.2732    C25.92735,26.68952,25.62035,26.70572,24.87755,26.56072z" style="fill:#F43735;"/><g><path d="M24.04835,33.34882c-1.4267,0-3.0869-0.3632-4.8603-1.4521     c-0.1885-0.1153-0.2471-0.3613-0.1319-0.5498c0.1162-0.1875,0.3623-0.2461,0.5498-0.1319     c4.836,2.9698,8.5996,0.1456,8.7569,0.0245c0.1767-0.1348,0.4258-0.1036,0.5615,0.0722     c0.1348,0.1739,0.1035,0.4248-0.0713,0.5596C28.82475,31.89382,26.90285,33.34882,24.04835,33.34882z" style="fill:#30302F;"/></g><g><path d="M24.08055,25.34492c-0.4296,0-0.7363-0.3086-0.7705-0.3447     c-0.1269-0.1328-0.1211-0.3438,0.0118-0.4707c0.1318-0.127,0.3408-0.1221,0.4687,0.0098c0.0371,0.0371,0.168,0.1396,0.29,0.1396     c0.0137-0.0088,0.1075,0.0059,0.2325-0.1318c0.122-0.1367,0.333-0.1465,0.4707-0.0235c0.1357,0.1241,0.1465,0.334,0.0234,0.4707     c-0.2588,0.2852-0.5312,0.3477-0.7158,0.3506C24.08745,25.34492,24.08455,25.34492,24.08055,25.34492z" style="fill:#EDC6AB;"/></g><path d="M26.08945,19.74152c0,0,0.2045-0.1019,0.4707-0.1571c0.2733-0.0631,0.6385-0.0901,0.9886-0.0549    c0.711,0.0619,1.2964,0.3957,1.2964,0.3957s-0.666-0.1375-1.28,0.0024c-0.3051,0.0629-0.5866,0.1774-0.773,0.2875    c-0.1964,0.1137-0.2676,0.1936-0.2676,0.1936c-0.1509,0.1692-0.4102,0.184-0.5793,0.0331    c-0.169-0.1508-0.1839-0.4101-0.033-0.5792c0.0354-0.0397,0.0768-0.0709,0.1217-0.0934L26.08945,19.74152z" style="fill:#30302F;"/><g><path d="M21.48925,20.40872c0,0-0.0714-0.0799-0.2677-0.1936c-0.1865-0.1101-0.468-0.2246-0.7731-0.2875     c-0.6138-0.1399-1.2798-0.0024-1.2798-0.0024s0.5853-0.3338,1.2963-0.3957c0.3501-0.0352,0.7152-0.0082,0.9885,0.0549     c0.2664,0.0552,0.4709,0.1571,0.4709,0.1571l0.0541,0.0271c0.2028,0.1012,0.2851,0.3476,0.1839,0.5503     c-0.1011,0.2026-0.3475,0.2849-0.5502,0.1837C21.56455,20.47892,21.52265,20.44612,21.48925,20.40872z" style="fill:#30302F;"/></g><g><path d="M29.14795,21.40602l-0.0251-0.0403c-2.8135-1.5084-3.4684,0.9945-3.4684,0.9945     s0.5213,0.3115,1.2607,0.2786C28.60565,22.44852,28.94915,21.81762,29.14795,21.40602z" style="fill:#FFFFFF;"/></g><path d="M28.96165,21.23512c0,0,0.2976-0.3416,0.3243-0.5812c0,0-0.4182,0.4536-0.7155,0.481" style="fill:#30302F;"/><path d="M28.39555,21.13492c0,0,0.3434-0.3018,0.3957-0.5371c0,0-0.3174,0.3131-0.6157,0.3068" style="fill:#30302F;"/><ellipse cx="27.2209" cy="21.52722" rx="0.71285" ry="0.72592" style="fill:#30302F;" transform="matrix(0.99452 -0.10451 0.10451 0.99452 -2.10073 2.96273)"/><ellipse cx="27.50595" cy="21.49517" rx="0.16471" ry="0.16774" style="fill:#FFFFFF;" transform="matrix(0.9945 -0.10473 0.10473 0.9945 -2.09997 2.99897)"/><g><path d="M19.10925,21.37462l0.0259-0.0398c2.8411-1.4558,3.4492,1.0588,3.4492,1.0588     s-0.5269,0.3018-1.2655,0.2552C19.63215,22.42712,19.30045,21.78992,19.10925,21.37462z" style="fill:#FFFFFF;"/></g><path d="M19.29875,21.20732c0,0-0.2775-0.2343-0.2998-0.4744c0,0,0.2923,0.3161,0.5892,0.3491" style="fill:#30302F;"/><path d="M19.86655,21.11762c0,0-0.324-0.1953-0.3719-0.4316c0,0,0.2979,0.2061,0.5962,0.2054" style="fill:#30302F;"/><g><path d="M29.14345,21.62562c0.0121-0.0266,0.0256-0.043,0.0367-0.0767     c0.0035-0.0299-0.0181-0.0519-0.0228-0.0802c-0.0026-0.0504-0.0126-0.0896-0.0379-0.1331     c-0.0077-0.0111-0.0149-0.0186-0.0239-0.0285c-0.0273-0.0362-0.0432-0.0803-0.086-0.1027     c-0.3072-0.1601-0.6243-0.3039-0.9657-0.4046c-0.3493-0.0785-0.7183-0.1355-1.0907-0.0446     c-0.3698,0.0886-0.6953,0.3184-0.9115,0.6042c-0.2161,0.2904-0.3502,0.609-0.4223,0.9571l-0.0036,0.0168     c-0.0097,0.0469,0.0132,0.0961,0.0583,0.1178c0.4091,0.197,0.836,0.255,1.251,0.2187c-0.3723-0.0425-0.7286-0.1857-1.0153-0.3842     c0.1889-0.5444,0.6025-1.0342,1.1306-1.0945c0.2755-0.0414,0.5634,0.0314,0.8408,0.1199     c0.2349,0.095,0.4593,0.2212,0.6801,0.3578c-0.0125,0.0691-0.0331,0.1402-0.0638,0.2115     c-0.0685,0.1542-0.1747,0.306-0.3045,0.4421c0.1824-0.0461,0.3651-0.1187,0.5391-0.2329     c0.0861-0.0581,0.1701-0.1263,0.2466-0.2097c0.0605-0.0733,0.1139-0.1437,0.1622-0.2486c0.0005-0.001,0.0019-0.001,0.0023-0.002     C29.14385,21.62812,29.14285,21.62682,29.14345,21.62562z" style="fill:#30302F;"/><path d="M22.21605,21.38592c-0.2109-0.2898-0.5321-0.5257-0.9002-0.6211     c-0.3707-0.0979-0.7407-0.0478-1.0914,0.0242c-0.3432,0.0944-0.6629,0.2322-0.973,0.3867     c-0.0083,0.0041-0.017,0.0089-0.0251,0.0139c-0.0329,0.0204-0.0402,0.0582-0.0626,0.087     c-0.0118,0.0124-0.0182,0.0242-0.0278,0.0384c-0.0246,0.0441-0.0388,0.0824-0.0404,0.1327     c-0.0036,0.0247-0.0236,0.0432-0.0211,0.0692c0.0532,0.1725,0.1203,0.2403,0.1953,0.3346     c0.075,0.0848,0.1577,0.1546,0.2426,0.2142c0.1719,0.1175,0.3533,0.1935,0.5347,0.243     c-0.1272-0.1386-0.2305-0.2923-0.2962-0.4477c-0.0293-0.0719-0.0486-0.1433-0.0597-0.2127     c0.2232-0.1324,0.4498-0.2544,0.6865-0.345c0.2791-0.0834,0.5683-0.1509,0.8429-0.1043c0.5269,0.0701,0.9314,0.5675,1.11,1.1153     c-0.2903,0.1932-0.6492,0.3297-1.0223,0.3653c0.4144,0.044,0.8422-0.006,1.2549-0.1954c0.0435-0.02,0.0697-0.0676,0.0604-0.1168     l-0.0031-0.0168C22.55485,22.00122,22.42665,21.68022,22.21605,21.38592z" style="fill:#30302F;"/></g><ellipse cx="21.03375" cy="21.53167" rx="0.7259" ry="0.71291" style="fill:#30302F;" transform="matrix(0.12295 -0.99241 0.99241 0.12295 -2.9206 39.75859)"/><ellipse cx="20.7289" cy="21.44234" rx="0.16772" ry="0.1647" style="fill:#FFFFFF;" transform="matrix(0.12295 -0.99241 0.99241 0.12295 -3.0994 39.37761)"/><ellipse cx="31.07752" cy="23.84312" rx="0.68725" ry="1.2316" style="fill:#BFE1FF;"/><ellipse cx="16.97092" cy="23.91792" rx="0.68715" ry="1.2316" style="fill:#BFE1FF;"/></g></g></svg>