<?xml version="1.0" ?><svg style="enable-background:new 0 0 48 48;" version="1.1" viewBox="0 0 48 48" xml:space="preserve" xmlns="http://www.w3.org/2000/svg" xmlns:xlink="http://www.w3.org/1999/xlink"><g id="Icons"><g><path d="M24.27505,13.06995l1.2654-0.4362c1.4143-3.2725,4.2569-2.7359,4.2569-2.7359    c-0.3603-2.3252-2.3464-2.9252-3.6274-3.2408c-1.281-0.3155-1.4053-0.8075-3.0572-0.4453    c-1.6519,0.3621-0.971,0.6183-2.4044,0.9914c-1.4335,0.3731-1.7234,2.5613-1.7234,2.5613S22.86075,9.79735,24.27505,13.06995z" style="fill:#8E5D47;"/><path d="M40.00445,33.32854c-10.7285,10.032-21.3988,10.1444-32.0089,0c0,0,1.4327-1.9082,4.4685-1.6105    c0,0,4.7566,4.4903,9.0539,4.9605c5.4136,0.5923,9.4441-0.7117,12.1444-3.7901c0,0-0.6819-1.8168,0.7025-1.535    C35.74925,31.63525,39.29865,32.74255,40.00445,33.32854z" style="fill:#FFE291;"/><path d="M19.81965,26.95925c0,0,0.9269,3.2908-2.0073,3.9242c-2.9341,0.6332-5.3762,0.8319-5.3762,0.8319    c0.0727-0.0061,0.509,0.6282,0.5597,0.6899c0.4751,0.5787,0.9847,1.1296,1.5219,1.6511c1.8884,1.8336,4.1116,3.4508,6.7679,3.8793    c1.5181,0.245,3.077,0.0951,4.5815-0.2227c1.2633-0.2669,2.4974-0.6504,3.7332-1.0204c1.0063-0.3013,1.9725-0.8139,2.4633-1.7988    c0.6449-1.2945-0.8987-2.2322-1.9542-2.7211c-1.0554-0.4889-3.3553-1.601-2.172-5.2613L19.81965,26.95925z" style="fill:#FFE7D7;"/><path d="M27.94115,26.90675c-0.02,0.07-0.04,0.13-0.05,0.19c-0.11,0.33-0.18,0.64-0.21,0.93    c-0.57,0.56-1.25,1-2.02,1.27c-1.15,0.41-2.47,0.45-3.62,0.03c-0.8-0.29-1.5-0.77-2.09-1.36c0-0.34-0.05-0.63-0.09-0.81    c-0.02-0.13-0.04-0.2-0.04-0.2L27.94115,26.90675z" style="fill:#DDBEA8;"/><path d="M20.89965,13.66605l1.4225-0.2016c0.1946-0.0044,2.7325,1.4552,2.7325,1.4552l2.1822-0.8794    c0,0,2.0867-2.3468,5.0747-0.6894c-0.0398-0.0727-0.0796-0.1426-0.1193-0.221c-1.0541-2.0838-2.3949-3.232-2.3949-3.232    s-4.1238-0.9948-5.5381,2.2777v0.0103c-1.4143-3.2725-5.2743-2.4214-5.2743-2.4214s-1.9909,0.0807-3.118,2.2625    c-0.3905,0.7559-0.7627,1.2664-1.0973,1.7296C18.02485,11.34675,20.89965,13.66605,20.89965,13.66605z" style="fill:#A67358;"/><path d="M32.65475,28.73705c-1.1049-0.7191-1.6391-0.6049-1.902-2.5643    c-0.2629-1.9595,0.7776-3.5315,1.1905-3.8257c0.2113-0.1507,0.855-0.7874,1.4298-1.6884    c0.0336-0.8006,0.7336-3.2198-0.1682-3.7744c-1.24-0.7625-1.8711-1.6091-1.8711-1.6091l-1.5865,0.3613l-11.2863-0.7916    l-0.87,0.0748c0,0-0.5297,1.002-1.8057,1.7027c-2.2031,1.2097-1.5501,4.007-1.0025,4.6109    c0.2462,0.2282,0.4986,0.4334,0.7352,0.6279c1.0489,0.8623,1.4025,1.8341,1.4526,2.5205    c0.0502,0.6864-1.0318,2.2714-2.5126,3.9078c-1.4807,1.6363-0.9821,3.3203-0.9821,3.3203s3.2686-0.1348,5.1733-1.0251    c1.9046-0.8903,1.2099-3.641,1.2099-3.641l8.0133,0.067c0,0-0.2387,0.6577-0.4474,2.3085    c-0.2088,1.6509,1.8778,2.3427,3.2965,3.5687c1.4188,1.2258,0.3187,1.5443-0.143,2.6738    c-0.4616,1.1295-0.5678,2.4985,0.5551,3.7691c1.1231,1.2706,0.1272,2.5851,0.1272,2.5851s1.3728-1.2574,1.1335-3.0537    c-0.2392-1.7964,0.8276-1.8316,2.3117-4.8609C36.19015,30.97195,33.75955,29.45615,32.65475,28.73705z" style="fill:#A67358;"/><path d="M15.86455,18.04615c1.24-0.7625,1.5325-2.1286,1.5325-2.1286l0.7773-0.4199l11.5729,0.1388    l0.7773,0.4199c0,0,0.2925,1.366,1.5324,2.1285c0.9018,0.5546,1.3497,1.6732,1.3161,2.4738    c0.5476-0.8584,1.0328-1.9562,1.0166-3.1162c-0.032-2.2883-1.0612-2.3346-2.0781-4.1916    c-2.988-1.6574-5.9079-0.5953-5.9079-0.5953l-0.8043,0.8476c0,0-3.0826-0.1431-3.2772-0.1387l-0.8042-0.8477    c0,0-3.4931-1.27-6.7483,1.1398c-0.6311,0.8736-1.1261,1.576-1.3424,3.4182c-0.2562,2.1832,0.5099,3.2749,1.3555,4.0585    C14.23515,20.62935,14.62925,18.80575,15.86455,18.04615z" style="fill:#8E5D47;"/><ellipse cx="30.91483" cy="23.2968" rx="0.86585" ry="1.1762" style="fill:#FFE291;"/><ellipse cx="16.97058" cy="23.2968" rx="0.86585" ry="1.1762" style="fill:#FFE291;"/><path d="M24.19825,14.22455c0,0-1.5854-1.5946-3.0538-1.6538c-1.4683-0.0593-3.3969,1.3729-3.6554,2.6858    c-0.2586,1.3129,0.0322,1.8619,0.0828,2.9611c0.0506,1.0991-0.0741,2.9182,0.1586,4.5196c0.3563,2.4524,1.8998,4.99,4.3104,5.8684    c1.1529,0.42,2.4695,0.3794,3.6214-0.0301c1.0437-0.3709,1.9181-1.0446,2.6031-1.9068c0.729-0.9175,1.4096-1.9775,1.7242-3.1161    c0.153-0.5536,0.2224-1.1275,0.2243-1.7014c0.0074-2.2762-0.0217-3.3094,0.2163-4.3867c0.2381-1.0773,0.3055-2.1378-0.8829-3.3577    c-1.1884-1.22-2.2209-1.8673-3.6054-1.1329C24.55725,13.70825,24.19825,14.22455,24.19825,14.22455z" style="fill:#FFE7D7;"/><path d="M24.75625,24.52165c-0.8041-0.1568-0.89,0.1163-0.89,0.1163s-0.0857-0.2731-0.8899-0.1163    c-0.8043,0.1568-1.1367,0.1393-1.4584,0.0654c0,0,0.9652,1.3952,2.3483,1.3787c1.3834,0.0165,2.3484-1.3787,2.3484-1.3787    C25.89295,24.66095,25.56055,24.67845,24.75625,24.52165z" style="fill:#F43735;"/><g><path d="M25.32325,17.43145c-0.017,0.0095,0.2298-0.0708,0.5948-0.089     c0.365-0.0243,0.7899,0.0492,1.2009,0.0551c0.2236-0.0019,0.4619,0.038,0.6569,0.0891c0.2,0.0522,0.3787,0.1136,0.5305,0.1677     c0.3013,0.1106,0.5021,0.1843,0.5021,0.1843s-0.2119-0.0271-0.5298-0.0678c-0.1583-0.019-0.3429-0.0383-0.5371-0.0442     c-0.199-0.0045-0.388,0.0056-0.5873,0.0525c-0.4337,0.1014-0.864,0.1388-1.1284,0.231c-0.266,0.0827-0.4119,0.1807-0.4298,0.1837     c-0.2105,0.0753-0.4423-0.0343-0.5176-0.2449C25.00315,17.73845,25.11275,17.50665,25.32325,17.43145z" style="fill:#30302F;"/></g><g><path d="M22.36005,18.19385c-0.0179-0.003-0.1638-0.101-0.4298-0.1837     c-0.2645-0.0922-0.6948-0.1296-1.1284-0.231c-0.1993-0.0469-0.3883-0.057-0.5873-0.0525     c-0.1942,0.0059-0.3788,0.0252-0.5372,0.0442c-0.3178,0.0407-0.5298,0.0678-0.5298,0.0678s0.2009-0.0737,0.5022-0.1843     c0.1516-0.0541,0.3304-0.1155,0.5305-0.1677c0.1949-0.0511,0.4333-0.091,0.6569-0.0891     c0.4109-0.0059,0.8359-0.0794,1.2009-0.0551c0.365,0.0182,0.6117,0.0985,0.5947,0.089c0.2106,0.0752,0.3202,0.307,0.2448,0.5175     C22.80225,18.15955,22.57055,18.26915,22.36005,18.19385z" style="fill:#30302F;"/></g><g><path d="M23.89605,23.25405c-0.4775,0-0.8213-0.3467-0.8594-0.3867     c-0.1113-0.1163-0.1064-0.3008,0.0098-0.4122c0.1162-0.1103,0.3008-0.1074,0.4111,0.0088     c0.0577,0.0586,0.2461,0.2061,0.4395,0.2061c0.002,0,0.0049,0,0.0068,0c0.126-0.002,0.2452-0.0674,0.3653-0.1992     c0.1074-0.1211,0.2929-0.128,0.4111-0.0205c0.1201,0.1074,0.1289,0.292,0.0205,0.4111c-0.2881,0.3193-0.5898,0.3896-0.792,0.3926     C23.90485,23.25405,23.89995,23.25405,23.89605,23.25405z" style="fill:#EDC6AB;"/></g><g><path d="M29.05985,19.40705l-0.0216-0.0434c-2.7167-1.8034-3.6244,0.6761-3.6244,0.6761     s0.5002,0.3667,1.2556,0.4046C28.40755,20.41385,28.81795,19.80605,29.05985,19.40705z" style="fill:#FFFFFF;"/></g><path d="M28.88685,19.21555c0,0,0.3357-0.3184,0.386-0.5593c0,0-0.4692,0.4206-0.7743,0.4198" style="fill:#30302F;"/><path d="M28.32065,19.05915c0,0,0.3784-0.2735,0.4543-0.5075c0,0-0.3531,0.2874-0.6559,0.2523" style="fill:#30302F;"/><path d="M27.81625,19.33705c0.001,0.4091-0.3243,0.7441-0.7266,0.7482    c-0.4023,0.004-0.7293-0.3243-0.7303-0.7334c-0.0011-0.4091,0.3242-0.7441,0.7266-0.7482    C27.48825,18.59965,27.81515,18.92795,27.81625,19.33705z" style="fill:#30302F;"/><ellipse cx="27.446" cy="19.25177" rx="0.16836" ry="0.17115" style="fill:#FFFFFF;" transform="matrix(0.99995 -0.0101 0.0101 0.99995 -0.193 0.27812)"/><g><path d="M19.06575,19.40705l0.0217-0.0434c2.7167-1.8034,3.6244,0.6761,3.6244,0.6761     s-0.5002,0.3667-1.2556,0.4046C19.71815,20.41385,19.30775,19.80605,19.06575,19.40705z" style="fill:#FFFFFF;"/></g><path d="M19.23875,19.21555c0,0-0.3357-0.3184-0.3859-0.5593c0,0,0.4692,0.4206,0.7743,0.4198" style="fill:#30302F;"/><path d="M19.80505,19.05915c0,0-0.3784-0.2735-0.4543-0.5075c0,0,0.3531,0.2874,0.6559,0.2523" style="fill:#30302F;"/><g><path d="M29.03415,19.62965c0.0147-0.0258,0.03-0.0411,0.0445-0.0742     c0.0064-0.0302-0.0135-0.0548-0.0155-0.084c0.0022-0.0513-0.0041-0.0921-0.0256-0.1387     c-0.0068-0.012-0.0134-0.0204-0.0217-0.0316c-0.0243-0.0394-0.0362-0.0858-0.0776-0.1126     c-0.2971-0.1923-0.6057-0.3688-0.9431-0.5041c-0.3477-0.1132-0.7173-0.2068-1.1047-0.1503     c-0.3845,0.0543-0.7378,0.2561-0.9856,0.5256c-0.2481,0.2741-0.4154,0.5851-0.5225,0.9321l-0.0052,0.0167     c-0.0144,0.0468,0.0042,0.0991,0.0479,0.1255c0.3973,0.2397,0.8259,0.3396,1.2515,0.3427     c-0.3746-0.0791-0.7232-0.259-0.9958-0.4882c0.2449-0.5352,0.7132-0.9927,1.2561-1.0028c0.2842-0.0156,0.57,0.0863,0.8437,0.203     c0.2298,0.119,0.4459,0.2688,0.6572,0.4287c-0.0194,0.0689-0.0473,0.1392-0.0853,0.2086     c-0.0847,0.1501-0.2073,0.2941-0.3525,0.4199c0.1899-0.0292,0.3826-0.0853,0.5707-0.1844     c0.0931-0.0507,0.1851-0.1118,0.271-0.1891c0.0687-0.0688,0.1298-0.1352,0.1893-0.2375     c0.0006-0.0009,0.0019-0.0008,0.0025-0.0017C29.03415,19.63215,29.03345,19.63075,29.03415,19.62965z" style="fill:#30302F;"/><path d="M22.22085,19.05975c-0.2477-0.2695-0.6011-0.4713-0.9855-0.5256     c-0.3875-0.0565-0.7571,0.0371-1.1047,0.1503c-0.3374,0.1353-0.6461,0.3118-0.9432,0.5041     c-0.0079,0.0052-0.0162,0.0111-0.0238,0.0171c-0.0311,0.0244-0.0343,0.0636-0.0537,0.0955     c-0.0106,0.014-0.0157,0.0268-0.0238,0.0423c-0.0198,0.0475-0.0299,0.088-0.0257,0.1391     c-0.0008,0.0256-0.019,0.0467-0.0134,0.0729c0.074,0.169,0.15,0.2299,0.237,0.317c0.0859,0.0773,0.178,0.1384,0.2711,0.1891     c0.188,0.0991,0.3808,0.1552,0.5706,0.1844c-0.1451-0.1258-0.2678-0.2698-0.3524-0.4199     c-0.0381-0.0694-0.0659-0.1396-0.0853-0.2085c0.2113-0.1599,0.4274-0.3098,0.6571-0.4288     c0.2737-0.1167,0.5596-0.2186,0.8437-0.203c0.543,0.0101,1.0113,0.4676,1.2561,1.0028     c-0.2725,0.2292-0.6212,0.4091-0.9958,0.4882c0.4257-0.0031,0.8542-0.103,1.2515-0.3427     c0.0419-0.0252,0.0629-0.0766,0.0478-0.1255l-0.0051-0.0167C22.63625,19.64485,22.46895,19.33385,22.22085,19.05975z" style="fill:#30302F;"/></g><path d="M20.30945,19.33705c-0.001,0.4091,0.3243,0.7441,0.7266,0.7482    c0.4023,0.004,0.7293-0.3243,0.7303-0.7334c0.0011-0.4091-0.3243-0.7441-0.7266-0.7482    C20.63745,18.59965,20.31045,18.92795,20.30945,19.33705z" style="fill:#30302F;"/><ellipse cx="20.78855" cy="19.25725" rx="0.1712" ry="0.16831" style="fill:#FFFFFF;" transform="matrix(0.0101 -0.99995 0.99995 0.0101 1.32231 39.85023)"/></g></g></svg>