<?xml version="1.0" ?><svg style="enable-background:new 0 0 48 48;" version="1.1" viewBox="0 0 48 48" xml:space="preserve" xmlns="http://www.w3.org/2000/svg" xmlns:xlink="http://www.w3.org/1999/xlink"><g id="Icons"><g><path d="M37.19487,21.94652c-0.2743-2.4291-3.3454-5.2664-3.3454-5.2664    c-4.3767-2.5851-6.9936-5.8544-6.9936-5.8544l-6.3199,0.2619c-2.2273,1.6656-6.6895,5.9572-6.6895,5.9572    c-1.5731,0.956-3.4195,3.3146-3.1763,6.7997c0.2433,3.4851,3.9996,7.5426,3.9996,7.5426    c7.2218-0.5748,6.9163-3.9543,6.9163-3.9543c-2.583-2.2814-4.3548-5.8112-4.6437-7.5429    c-0.2889-1.7316,0.8204-1.6254,0.8204-1.6254c4.762-1.894,5.9657-4.1386,5.9657-4.1386l0.2256,0.8975    c0,0,5.1633,2.5937,6.3111,3.2177c1.1477,0.624,0.7321,0.5725,0.6717,2.1642c-0.0605,1.5916-2.269,3.7789-3.1148,4.8619    c-0.8458,1.083-0.5696,1.5931,0.361,3.9905c0.9306,2.3973,5.4259,1.7929,5.4259,1.7929l2.7204-4.3564    C36.32937,26.69422,37.55057,25.09702,37.19487,21.94652z" style="fill:#464747;"/><path d="M25.34707,12.38982c0,0,4.0397,3.1654,8.5024,4.2903c0.1424-1.0608-1.1184-5.3441-2.6231-6.6684    c-1.5047-1.3242-3.172-3.5151-8.1335-3.3931c-4.9614,0.1221-7.3404,3.1517-8.4181,5.8154    c-1.0777,2.6636-0.8283,4.6108-0.8283,4.6108s5.6026-2.5285,7.8298-4.194L25.34707,12.38982z" style="fill:#2D2D2D;"/><path d="M42.31817,35.49822c-0.5784-1.4347-2.1688-0.8787-2.1688-0.8787l-3.2984,0.0747l-27.3745,0.7306    l-1.6259-0.8053c0,0-1.5904-0.556-2.1687,0.8787c-0.5784,1.4347,0,2.1094,0,2.1094c12.12,5.0068,24.3309,5.0695,36.6363,0    C42.31817,37.60762,42.89647,36.93292,42.31817,35.49822z" style="fill:#74C7E8;"/><path d="M32.11657,16.14132c0,0-0.9766-5.1261-6.0974-6.243c0,0,0.4944,1.5889-0.442,2.731    C25.57717,12.62932,29.71147,15.42992,32.11657,16.14132z" style="fill:#74C7E8;"/><path d="M15.36017,16.33782c0,0,0.9252-5.1071,6.046-6.224c0,0-0.2205,1.3874,0.7159,2.5295    C22.12207,12.64332,17.32197,15.68542,15.36017,16.33782z" style="fill:#74C7E8;"/><path d="M12.91617,21.10112c-0.0195,0.0194-0.0291,0.0485-0.0487,0.0679    c-0.3478,0.3446-0.5539,0.9842-0.6817,1.4437c-0.1435,0.5161-0.2035,1.0517-0.2172,1.5862    c-0.0155,0.6023-0.0364,1.2093,0.0471,1.8079c0.0862,0.618,0.3234,1.1276,0.6473,1.6534    c0.6254,1.0152,1.4097,1.9322,2.2564,2.7689c0.2918,0.2883,0.5906,0.5735,0.9077,0.8342    c7.2217-0.5748,5.7591-3.8305,5.7591-3.8305c-2.5831-2.2814-4.3549-5.8112-4.6438-7.5429    c-0.1408-0.8442,0.0273-1.2664,0.2356-1.4815c-0.4442,0.2064-0.886,0.4128-1.329,0.6242    C14.75157,19.56672,13.67357,20.10082,12.91617,21.10112z" style="fill:#2D2D2D;"/><path d="M34.93747,20.80102c0.0195,0.0194,0.0292,0.0485,0.0487,0.0679    c0.4859,0.6853,0.6798,1.5231,0.7176,2.3514c0.0425,0.9309-0.0321,1.9167-0.2145,2.8301    c-0.2915,1.4598-1.1387,2.6446-2.0303,3.8035c-0.2359,0.3066-0.479,0.6079-0.7305,0.9018    c-0.0319,0.0374-0.2378,0.3355-0.2915,0.3313c-7.2217-0.5748-6.1694-3.9543-6.1694-3.9543    c2.583-2.2815,4.3548-5.8112,4.6437-7.5429c0.1408-0.8442-0.0273-1.2664-0.2355-1.4815c0.4441,0.2064,0.8859,0.4127,1.3289,0.6242    C33.10207,19.26662,34.18007,19.80072,34.93747,20.80102z" style="fill:#2D2D2D;"/><path d="M17.20117,19.15622c0,0-2.0364-0.1927-1.619,1.4936c0.2324,0.9388,1.051,3.81,2.4481,3.665    l0.5278-1.6354L17.20117,19.15622z" style="fill:#D8AD8F;"/><path d="M30.91367,19.06102c0,0,2.0364-0.1926,1.619,1.4937c-0.2324,0.9387-1.2148,3.8153-2.6119,3.6702    l-0.3641-1.6406L30.91367,19.06102z" style="fill:#D8AD8F;"/><path d="M20.12797,27.00552c0,0,0.6253,3.127-1.8414,3.6029c-2.4667,0.4661-7.507,0.3981-9.2065,2.0879    c0,0-1.4567,1.1362-1.8743,3.6805c7.2307-0.1613,13.7806,0.205,16.8454,3.2719c3.1893-3.6533,10.2711-3.2311,16.8922-3.2913    c-0.1262-0.738-0.3302-1.3499-0.5729-1.8549c-0.5827-1.2332-1.3111-1.8062-1.3111-1.8062    c-1.6995-1.6898-6.7301-1.6218-9.1967-2.0879c-2.4668-0.4759-1.8473-3.8544-1.8473-3.8544" style="fill:#F9CAAA;"/><path d="M18.59157,25.20892c-0.0117,0.1395-0.3567,1.0342-0.7683,1.0011    c-0.3964,0-0.7047-0.5543-0.7047-1.2593c0-0.3725,0.0844-0.7183,0.2349-0.949c0.0036-0.0088,0.1671-0.1953,0.1744-0.1997    l-0.763-1.0935c-0.0194,0.0096-0.207,0.1406-0.2167,0.16c-0.3981,0.5051-0.6215,1.2625-0.6215,2.0782    c0,1.5441,0.8158,2.758,1.8646,2.758c0.6798,0,1.3437-0.7114,1.6642-1.5466" style="fill:#FFC601;"/><path d="M29.07917,25.09122c0.1211,0.3814,0.5312,0.8924,0.7881,0.8924    c0.3964,0,0.7047-0.5543,0.7047-1.2593c0-0.3725-0.0844-0.7184-0.2349-0.949c-0.0036-0.0088-0.0073-0.0133-0.0147-0.0177    l0.8439-1.2484c0.0389,0.0195,0.068,0.0486,0.0971,0.0875c0.3982,0.5049,0.6215,1.2623,0.6215,2.0781    c0,1.5441-0.8156,2.758-1.8645,2.758c-0.6798,0-1.2819-0.5859-1.6025-1.4211" style="fill:#FFC601;"/><path d="M28.01797,26.75822c0,0-0.01,0.05-0.02,0.1501c-0.02,0.1399-0.05,0.3899-0.05,0.6899    c-0.22,0.21-0.46,0.41-0.7,0.6c-0.9,0.72-2.03,1.61-3.24,1.62c-0.55,0-1.06-0.21-1.53-0.48c-0.39-0.22-0.76-0.51-1.14-0.75    c-0.4-0.26-0.7799-0.5126-1.1399-0.8226c-0.01-0.39-0.0701-0.7601-0.0701-0.7601l0.04,0.0727L28.01797,26.75822z" style="fill:#D8AD8F;"/><path d="M31.12467,18.31742c0,0-5.0847-2.292-6.6794-3.7906c-0.0793-0.0437-0.2757-0.2651-0.3409-0.2833    c-0.0562-0.0187,0.0415-0.0977-0.0222-0.1328c-0.194-0.1073-0.3858-0.0175-0.5499,0.1493    c-0.6934,1.1635-3.7715,2.8476-5.8152,3.8731c-0.3738,0.1876-0.7086,0.3517-0.9918,0.4876    c0.0004,0.0031,0.0239,0.1904,0.053,0.4334c0.0397,0.3316,0.0896,0.7673,0.1068,0.9983c0.0118,0.1589,0.0342,0.3178,0.0663,0.4738    c0.3317,1.612,0.7482,2.8974,0.9266,3.4421c0.01,0.0599,0.03,0.1099,0.06,0.1699c0.01,0.0201,0.02,0.04,0.02,0.06    c0.01,0.01,0.01,0.03,0.02,0.04c0.27,0.62,0.62,1.2,1.06,1.71c0.07,0.08,0.14,0.15,0.21,0.23c0.62,0.68,1.32,1.28,2.09,1.77    c0.05,0.03,0.11,0.07,0.16,0.1c0.32,0.22,0.64,0.45,0.98,0.65c0.47,0.2701,0.98,0.47,1.53,0.47c1.21-0.0099,2.34-0.89,3.24-1.61    c0.08-0.06,0.16-0.12,0.23-0.19c0.52-0.43,1.02-0.91,1.46-1.42c0.37-0.39,0.69-0.85,0.94-1.35c0,0,0.01-0.02,0.03-0.06    c0.02-0.04,0.04-0.0699,0.05-0.11c0.14-0.36,0.45-1.28,0.71-3.01c0.08-0.49,0.2368-1.1204,0.2968-1.7504    C30.99637,19.20422,31.15267,18.60672,31.12467,18.31742z" style="fill:#F9CAAA;"/><path d="M19.23827,30.21022c5.1762,5.5159,9.5658-0.0777,9.5658-0.0777l1.0586,0.4759    c0,0-5.4773,9.7306-11.7315,0.0291" style="fill:#FFC601;"/><path d="M25.01507,24.74792c-0.7526-0.0594-0.9938,0.1441-0.9938,0.1441s-0.2413-0.2035-0.9941-0.1441    c-0.7526,0.0594-1.2062,0.0255-1.3509-0.0509c0.1939,0.1704,0.383,0.3456,0.5673,0.524c0.1222,0.1185,0.2489,0.2359,0.3573,0.3645    c0.1041,0.1233,0.1927,0.2571,0.3105,0.3711c0.1317,0.1276,0.2983,0.2272,0.4815,0.2885    c0.2046,0.0685,0.4064,0.1256,0.6284,0.1307c0.2219-0.0051,0.4237-0.0622,0.6282-0.1307    c0.1832-0.0613,0.3497-0.1609,0.4816-0.2885c0.1177-0.114,0.2062-0.2478,0.3103-0.3711c0.1085-0.1286,0.2352-0.246,0.3575-0.3645    c0.1843-0.1784,0.3732-0.3536,0.5672-0.524C26.22137,24.77342,25.76777,24.80732,25.01507,24.74792z" style="fill:#F43735;"/><path d="M27.50517,16.42152c-0.233,0.0875-0.7697,0.2803-0.9347,0.3776    c-0.1457,0.0873-0.2622,0.165-0.3496,0.2233c-0.068,0.0485-0.1554,0.097-0.1554,0.097c-0.1652,0.0778-0.3691,0.0098-0.4565-0.1553    c-0.0776-0.1748-0.0096-0.3788,0.1652-0.4565c0.0096-0.0096,0.0291-0.0096,0.1359-0.0582    c0.0971-0.0389,0.2428-0.1068,0.4273-0.1748c0.1068-0.0389,0.5873-0.1636,0.7233-0.1927    C27.16747,16.15972,27.33037,16.28562,27.50517,16.42152z" style="fill:#464747;"/><path d="M22.38477,16.96412c-0.0776,0.1748-0.2719,0.2524-0.4467,0.1846    c-0.0194-0.0098-0.0389-0.0195-0.0583-0.0293c0,0-0.0582-0.0388-0.1554-0.097c-0.0776-0.0583-0.1941-0.136-0.3399-0.2233    c-0.1748-0.0973-0.7133-0.306-0.9464-0.3838c0.1845-0.1068,0.4223-0.2169,0.5971-0.3334c0.0098,0,0.2814,0.1053,0.2814,0.1053    c0.1068,0.0291,0.2039,0.0583,0.3011,0.0874c0.1747,0.068,0.3301,0.1359,0.4273,0.1748c0.0873,0.0389,0.1359,0.0582,0.1359,0.0582    l0.0194,0.0098C22.37507,16.58532,22.45277,16.78932,22.38477,16.96412z" style="fill:#464747;"/><path d="M23.05537,22.28702c0,0,0.1716,0.0479,0.3721,0.0802c0.2002,0.0418,0.4015,0.0593,0.5757,0.0504    c0.0911,0.004,0.1838-0.0139,0.2871-0.0224c0.1015-0.0172,0.2082-0.0336,0.3105-0.0535c0.1108-0.018,0.2031-0.033,0.2677-0.0434    c0.0699-0.0108,0.1185-0.0113,0.1185-0.0113s-0.0038,0.0451-0.0257,0.1145c-0.0297,0.061-0.0467,0.1796-0.1237,0.2741    c-0.1228,0.2085-0.4274,0.4409-0.8139,0.454c-0.3897,0.0108-0.719-0.2218-0.8432-0.4385    C23.04677,22.47052,23.05537,22.28702,23.05537,22.28702z" style="fill:#D8AD8F;"/><g><path d="M29.26717,18.50032c0,0,0.3469-0.4098,0.3744-0.694c0,0-0.4879,0.5446-0.8401,0.5824" style="fill:#30302F;"/><path d="M28.59417,18.39182c0,0,0.4019-0.3635,0.4598-0.6431c0,0-0.3709,0.3763-0.7247,0.3743" style="fill:#30302F;"/><g><g><path d="M29.49107,18.69932l-0.0305-0.0472c-3.3626-1.736-4.0953,1.2393-4.0953,1.2393       s0.6236,0.3596,1.4997,0.3075C28.86617,19.94352,29.26257,19.19032,29.49107,18.69932z" style="fill:#FFFFFF;"/></g><path d="M28.04757,18.77632c0.053,0.4718-0.2798,0.8994-0.7434,0.9551      c-0.4635,0.0557-0.8824-0.2816-0.9354-0.7534c-0.0531-0.4718,0.2797-0.8994,0.7433-0.9551S27.99447,18.30452,28.04757,18.77632z      " style="fill:#30302F;"/><ellipse cx="27.60965" cy="18.72484" rx="0.19534" ry="0.19859" style="fill:#FFFFFF;" transform="matrix(0.99286 -0.11928 0.11928 0.99286 -2.03633 3.42686)"/><g><path d="M18.55807,18.81172l0.0279-0.0489c3.2613-1.9193,4.1575,1.0109,4.1575,1.0109       s-0.6026,0.3935-1.4803,0.39C19.25087,20.01942,18.81347,19.28932,18.55807,18.81172z" style="fill:#FFFFFF;"/></g><path d="M18.77057,18.60062c0,0-0.369-0.3899-0.4122-0.6722c0,0,0.5174,0.5168,0.871,0.535" style="fill:#30302F;"/><path d="M19.43657,18.45502c0,0-0.4213-0.3407-0.4946-0.6167c0,0,0.3911,0.3553,0.7443,0.3336" style="fill:#30302F;"/><g><path d="M29.51107,18.70992c-0.0242-0.1025-0.087-0.1951-0.1881-0.2471       c-0.711-0.3658-1.5515-0.7046-2.4451-0.4963c-0.4372,0.1086-0.8201,0.3886-1.0704,0.7317       c-0.2525,0.3473-0.4061,0.7276-0.4845,1.142l-0.0039,0.0205c-0.0105,0.0556,0.0175,0.1133,0.0712,0.1381       c0.4886,0.2261,0.9956,0.287,1.4871,0.2367c-0.4422-0.0438-0.8673-0.2071-1.2109-0.437       c0.2134-0.6489,0.6972-1.2381,1.3219-1.3169c0.6075-0.0883,1.241,0.1855,1.8121,0.5377       c-0.0135,0.0825-0.037,0.1677-0.0724,0.2532c-0.0786,0.1839-0.2019,0.3655-0.3534,0.529       c0.2154-0.0577,0.4306-0.1468,0.6349-0.2851c0.101-0.0703,0.1994-0.1524,0.2887-0.2525       c0.0894-0.1115,0.1693-0.1915,0.2332-0.3957C29.53717,18.81252,29.52827,18.75952,29.51107,18.70992z" style="fill:#30302F;"/><path d="M22.23587,18.60682c-0.2688-0.3287-0.6666-0.5871-1.1091-0.6714       c-0.9037-0.1584-1.7243,0.2263-2.414,0.6309c-0.0105,0.0064-0.0249,0.0157-0.0351,0.0233       c-0.0861,0.0646-0.1341,0.1594-0.1448,0.2585c-0.0092,0.0433-0.0131,0.0882-0.0058,0.1344       c0.0751,0.2005,0.1593,0.2759,0.2547,0.3822c0.0947,0.0951,0.1976,0.1716,0.3023,0.2362       c0.2117,0.1268,0.4315,0.2038,0.6497,0.2495c-0.1603-0.1548-0.2934-0.3294-0.3821-0.5086       c-0.04-0.0834-0.0682-0.1672-0.0864-0.2488c0.5507-0.3833,1.1682-0.6917,1.7796-0.6372       c0.6282,0.0441,1.1439,0.6058,1.3928,1.2418c-0.3304,0.2487-0.7458,0.4352-1.1848,0.5033       c0.4934,0.0231,0.9963-0.0658,1.4717-0.3186c0.0499-0.0265,0.0776-0.0845,0.0633-0.1419l-0.005-0.0201       C22.68167,19.31072,22.50737,18.93962,22.23587,18.60682z" style="fill:#30302F;"/></g><path d="M20.00367,18.80872c-0.0269,0.474,0.3291,0.8826,0.795,0.9125      c0.466,0.03,0.8655-0.33,0.8924-0.804c0.0269-0.474-0.3291-0.8825-0.7951-0.9125      C20.43007,17.97472,20.03057,18.33472,20.00367,18.80872z" style="fill:#30302F;"/><ellipse cx="20.43802" cy="18.73312" rx="0.19862" ry="0.19535" style="fill:#FFFFFF;" transform="matrix(0.06399 -0.99795 0.99795 0.06399 0.43551 37.93057)"/></g></g><path d="M23.64637,13.98662c-0.73,2.51-4.8984,5.6316-6.6584,6.7116c-0.02-0.05-0.03-0.11-0.04-0.17    c-0.03-0.16-0.05-0.32-0.06-0.48c-0.02-0.23-0.07-0.66-0.11-0.99c-0.03-0.25-0.05-0.43-0.05-0.44c0.28-0.13,0.62-0.3,0.99-0.49    c2.04-1.02,5.12-2.7,5.81-3.87C23.64797,14.13822,23.51637,13.98662,23.64637,13.98662z" style="opacity:0.1;"/><path d="M31.12797,18.31822c0.02,0.29-0.13,0.89-0.16,1.35c-0.03,0.28-0.07,0.57-0.12,0.84    c-3.52-1.7899-6.08-5.2899-6.74-6.26c0.06,0.01,0.26,0.23,0.34,0.28C26.03797,16.02822,31.12797,18.31822,31.12797,18.31822z" style="opacity:0.1;"/><g><ellipse cx="23.72855" cy="10.82572" rx="2.48655" ry="3.6273" style="fill:#FFC601;"/></g><ellipse cx="23.72852" cy="10.82569" rx="1.0194" ry="1.48705" style="fill:#74C7E8;"/></g></g></svg>