<?xml version="1.0" ?><svg style="enable-background:new 0 0 48 48;" version="1.1" viewBox="0 0 48 48" xml:space="preserve" xmlns="http://www.w3.org/2000/svg" xmlns:xlink="http://www.w3.org/1999/xlink"><g id="Icons"><g><path d="M24.6225,11.3021l7.5283,4.2298c0,0-0.2387-2.0159,1.1582,0.3171l-0.1028-0.9862    c-0.0245-0.1001-1.0781-4.3825-3.2956-6.1125c-0.4449-0.3482-0.9284-0.648-1.441-0.8899L26.8448,7.261    c-1.0542-0.2806-2.1567-0.3676-3.2495-0.3096c-0.6576,0.0387-1.3443,0.116-2.0309,0.2708l-1.4411,0.3869v0.0096    c-1.0734,0.3578-2.0792,0.8994-2.8432,1.6441c-1.4894,1.4216-2.8048,3.4139-2.65,5.5223c0.0087,0.0865,0.0173,0.1746,0.026,0.2679    l0.039,0.6168C14.6951,15.66981,17.4217,10.22091,24.6225,11.3021z" style="fill:#282828;"/><path d="M16.0167,33.1894c0,0-4.8216-1.0362-7.6442,1.7148c-0.7884,0.7684-1.5245,1.7049-2.1173,2.8434    c11.9028,4.4397,23.7324,4.4248,35.4896,0c-0.8478-1.6281-1.9693-2.8359-3.111-3.7271c-2.5145-1.9629-5.7279-1.2053-5.7279-1.2053    " style="fill:#1D97FF;"/><path d="M35.942,21.85781l-12.0114-3.7775l-11.8726,3.7775c0,0-5.4781,0.5922-4.3231,4.513    c0.5756,1.9538,2.3326,2.0895,3.9858,3.0063c1.1046,0.6126,2.1016,1.3672,2.9419,2.3017    c1.0957,1.2185,1.6353,3.0006,2.8913,4.0372c1.5339,1.266,3.3644,2.2342,5.38,2.4721c2.7209,0.3213,5.9381-0.778,7.7961-2.7594    c1.0837-1.156,1.6256-2.6927,2.7219-3.8753c0.8489-0.9158,1.852-1.6456,2.9536-2.2453c1.6228-0.8834,3.2993-1.0355,3.8596-2.9373    C41.4201,22.45,35.942,21.85781,35.942,21.85781z" style="fill:#F4F4F4;"/><path d="M14.5499,31.55581c0,0-3.324,0.3979-6.1802,3.3455c0,0,2.1773-0.505,3.929-0.0437    s3.2017,0.7956,4.395,2.755c1.1934,1.9594,3.4836,2.9848,6.5065,3.0103c3.023,0.0255,4.9966-0.175,7.1702-1.9183    s1.8626-3.3775,8.265-4.6828c0,0-2.833-2.3898-5.2551-2.3898c0,0-0.555,0.5058-1.7536,2.6107    c-1.2424,2.1816-5.054,4.1874-8.7923,3.4004s-5.8933-2.1365-6.4962-3.4004C15.3614,32.19481,14.5499,31.55581,14.5499,31.55581z" style="fill:#91CAFF;"/><path d="M35.0913,20.2581c0.3454-2.9542-1.405-4.0202-1.405-4.0202l-0.2549-0.6989    c-0.0731-0.2379-0.172-0.4523-0.271-0.6664c-1.3969-2.3331-3.5914-3.566-3.5914-3.566l-4.9501-1.1647    c-7.2008-1.0813-9.9091,4.9424-9.9091,4.9424c-0.0622,0.1511-0.135,0.2923-0.1849,0.4547l-0.35,0.6989    c0,0-1.7505,1.066-1.405,4.0202c0,0-2.721,4.0517,1.2093,6.2042c0,0,0.1728,1.1884,1.6413,1.2305c0,0-0.216,2.659,3.8439,2.2369    h8.9324c4.0598,0.4221,3.844-2.2369,3.844-2.2369c1.4684-0.0421,1.6411-1.2305,1.6411-1.2305    C37.8122,24.3098,35.0913,20.2581,35.0913,20.2581z" style="fill:#464747;"/><path d="M19.5957,28.11291v2.8569c0,0-3.3651-0.1931-3.2575,3.2729c2.8281,5.3344,12.0586,5.3941,15.2885,0    c0.4469-3.248-3.2299-3.2729-3.2299-3.2729v-2.8569" style="fill:#FFE7D7;"/><path d="M28.393,28.11711v0.83l-0.03,0.03c-1,0.95-1.87,1.81-3.28,2.11c-2.39,0.51-3.89-0.59-5.49-2.11    v-0.86H28.393z" style="fill:#DDBEA8;"/><path d="M23.9781,12.0535c0,0-1.8219,1.4975-4.1495,1.9998c-2.3278,0.5022-3.352,2.1855-2.8399,6.2343    c0.5121,4.0489-0.9311,4.4588,2.607,7.8253c1.6013,1.5235,3.0988,2.6146,5.4842,2.1094c1.4107-0.2986,2.2814-1.1588,3.2804-2.1094    c3.5382-3.3665,2.095-3.7764,2.6071-7.8253c0.5121-4.0488-0.5121-5.7321-2.8399-6.2343    C25.7999,13.55101,23.9781,12.0535,23.9781,12.0535L23.9781,12.0535z" style="fill:#FFE7D7;"/><path d="M25.1641,25.5699c-0.4317-0.4973-1.1643-0.1304-1.1643-0.1304s-0.7327-0.3669-1.1645,0.1304    c-0.4317,0.4971-0.8111,0.5444-0.9812,0.4615c0,0,0.5626,1.3848,2.1457,1.3138c1.5829,0.071,2.1455-1.3138,2.1455-1.3138    C25.9753,26.11431,25.5958,26.06701,25.1641,25.5699z" style="fill:#F43735;"/><path d="M28.6744,9.6672l-0.0016-0.0004c0.1835-1.4727-0.6016-2.6951-0.6016-2.6951    c-2.1266,0.1322-2.735,1.9506-2.735,1.9506s-1.2679-0.5106-2.1608-0.0137h-0.0003c-0.0002-0.0004-0.37-1.1533-1.5946-1.7026    c-0.3086-0.147-0.6754-0.246-1.1104-0.2778c0,0-0.166,0.2504-0.3331,0.6556c-0.1717,0.4189-0.3362,1.0083-0.3271,1.6701    l-0.2484,0.0254c-1.6233,0.6085-2.5901,2.9107-2.5901,2.9107c5.1217-2.0639,9.3508-2.0639,14.2559,0.4206    C31.2273,12.61061,30.29,10.29621,28.6744,9.6672z" style="fill:#F43735;"/><path d="M23.1542,23.1163c0,0,0.1487,0.0475,0.3237,0.0805c0.1747,0.0421,0.3519,0.061,0.5063,0.0523    c0.0804,0.0038,0.1625-0.0139,0.253-0.0228c0.0893-0.0174,0.1827-0.0341,0.272-0.054c0.0964-0.0183,0.1768-0.0335,0.2331-0.0442    c0.0607-0.0109,0.103-0.0118,0.103-0.0118s-0.0038,0.0432-0.0234,0.1097c-0.0262,0.0586-0.0418,0.1724-0.1094,0.2631    c-0.1083,0.2003-0.3741,0.4233-0.7107,0.4358c-0.3395,0.0104-0.6266-0.2126-0.736-0.4207    C23.1481,23.2924,23.1542,23.1163,23.1542,23.1163z" style="fill:#EDC6AB;"/><g><g><path d="M26.1792,17.83001c0,0,0.1625,0.0223,0.417,0.0352c0.1267,0.0064,0.2748,0.0102,0.4311,0.0056      c0.0771-0.005,0.1568-0.0101,0.2379-0.0152c0.0814-0.008,0.168-0.0276,0.2858-0.0288c0.4284-0.0018,0.7699,0.1772,0.9938,0.3396      c0.2269,0.1666,0.3065,0.3339,0.3065,0.3339s-0.1235-0.1366-0.3668-0.2255c-0.2341-0.0911-0.5959-0.1442-0.8739-0.0556      c-0.0584,0.016-0.1395,0.056-0.2258,0.0918c-0.0885,0.0317-0.1757,0.063-0.2601,0.0934      c-0.1691,0.0543-0.3276,0.0954-0.4641,0.1273c-0.2725,0.0636-0.4629,0.0916-0.4629,0.0916l-0.0146,0.0022      c-0.2195,0.0323-0.4237-0.1194-0.456-0.3389c-0.0325-0.2196,0.1194-0.4236,0.3388-0.4561      C26.1038,17.825,26.143,17.8252,26.1792,17.83001z" style="fill:#30302F;"/></g></g><path d="M28.9421,19.7816c0,0,0.3773-0.4237,0.423-0.6657c0,0-0.4217,0.4585-0.7326,0.4625" style="fill:#30302F;"/><path d="M28.3618,19.634c0,0,0.4218-0.3795,0.4937-0.6151c0,0-0.3957,0.393-0.705,0.3627" style="fill:#30302F;"/><g><path d="M29.0459,20.15741l-0.0198-0.0423c-2.5721-1.8168-3.5054,0.5369-3.5054,0.5369     s0.4727,0.3678,1.199,0.4277C28.4148,20.89021,28.8034,20.53321,29.0459,20.15741z" style="fill:#FFFFFF;"/></g><ellipse cx="27.13635" cy="19.974" rx="0.71478" ry="0.71473" style="fill:#30302F;" transform="matrix(0.99968 -0.02546 0.02546 0.99968 -0.49979 0.69743)"/><ellipse cx="27.40892" cy="19.91161" rx="0.16515" ry="0.16515" style="fill:#FFFFFF;" transform="matrix(0.99968 -0.02543 0.02543 0.99968 -0.49751 0.70347)"/><g><g><path d="M21.6366,17.83001c0,0-0.1625,0.0223-0.417,0.0352c-0.1267,0.0064-0.2748,0.0102-0.4311,0.0056      c-0.0771-0.005-0.1568-0.0101-0.2379-0.0152c-0.0814-0.008-0.168-0.0276-0.2858-0.0288      c-0.4284-0.0018-0.7699,0.1772-0.9938,0.3396c-0.2269,0.1666-0.3065,0.3339-0.3065,0.3339s0.1235-0.1366,0.3668-0.2255      c0.2341-0.0911,0.5959-0.1442,0.8739-0.0556c0.0583,0.016,0.1395,0.056,0.2258,0.0918c0.0885,0.0317,0.1757,0.063,0.2601,0.0934      c0.1691,0.0543,0.3276,0.0954,0.4641,0.1273c0.2724,0.0636,0.4629,0.0916,0.4629,0.0916l0.0146,0.0022      c0.2195,0.0323,0.4237-0.1194,0.456-0.3389c0.0324-0.2196-0.1194-0.4236-0.3388-0.4561      C21.712,17.825,21.6728,17.8252,21.6366,17.83001z" style="fill:#30302F;"/></g></g><path d="M18.869,19.80951c0,0-0.3847-0.4169-0.4347-0.658c0,0,0.4405,0.4542,0.7514,0.4527" style="fill:#30302F;"/><path d="M19.4466,19.65161c0,0-0.4285-0.3719-0.5046-0.6062c0,0,0.4026,0.3859,0.7113,0.3501" style="fill:#30302F;"/><g><path d="M18.7719,20.1872l0.0191-0.0427c2.5393-1.8624,3.5144,0.4744,3.5144,0.4744     s-0.4661,0.3761-1.1912,0.4489C19.416,20.90861,19.0211,20.55861,18.7719,20.1872z" style="fill:#FFFFFF;"/></g><g><path d="M29.0995,20.19271c0.0141-0.026,0.029-0.0411,0.0428-0.0743     c0.0061-0.0312-0.0148-0.0561-0.0176-0.0862c0.001-0.0512-0.0059-0.0918-0.0281-0.1378     c-0.0073-0.0122-0.0144-0.0207-0.0232-0.0319c-0.0256-0.0397-0.0392-0.0866-0.0821-0.1128     c-0.3056-0.1869-0.6224-0.3572-0.966-0.4871c-0.3543-0.1052-0.7274-0.1975-1.1183-0.1342     c-0.387,0.0572-0.7452,0.2606-0.9952,0.5356c-0.2519,0.2782-0.4166,0.5971-0.5202,0.9505l-0.0048,0.0166     c-0.0141,0.0481,0.0061,0.1012,0.0515,0.1271c0.4101,0.2332,0.8479,0.3255,1.2814,0.3215     c-0.3827-0.0736-0.7418-0.2482-1.0261-0.4745c0.2393-0.5455,0.7122-1.0076,1.2638-1.0209     c0.2886-0.0216,0.5814,0.0814,0.8619,0.1921c0.2353,0.116,0.455,0.2681,0.6729,0.4242     c-0.0186,0.0663-0.0435,0.1336-0.0793,0.2004c-0.0835,0.1521-0.2058,0.2983-0.3505,0.4266     c0.1909-0.0312,0.3845-0.0892,0.5732-0.1908c0.0934-0.0519,0.1857-0.1143,0.2716-0.1935     c0.069-0.0709,0.1304-0.1389,0.1892-0.2453c0.0006-0.0009,0.0019-0.0008,0.0025-0.0018     C29.0996,20.1951,29.0988,20.19381,29.0995,20.19271z" style="fill:#30302F;"/><path d="M21.8968,19.63791c-0.2549-0.2705-0.6166-0.4675-1.0046-0.5177     c-0.3919-0.0564-0.7633,0.0426-1.1157,0.1541c-0.3412,0.1359-0.6549,0.3119-0.9571,0.5042     c-0.0081,0.0051-0.0165,0.011-0.0242,0.0169c-0.032,0.0248-0.0358,0.0648-0.0558,0.0973     c-0.0109,0.0144-0.0165,0.0273-0.0248,0.0433c-0.0197,0.0474-0.0296,0.0877-0.0258,0.1387     c-0.001,0.0264-0.0197,0.0482-0.014,0.0752c0.0752,0.1723,0.1525,0.233,0.241,0.3206c0.0872,0.0776,0.1806,0.1384,0.275,0.1886     c0.1904,0.0983,0.385,0.1528,0.5765,0.1806c-0.147-0.1257-0.2718-0.2698-0.3581-0.4202c-0.037-0.0663-0.063-0.1332-0.0829-0.1991     c0.2151-0.1599,0.4321-0.3158,0.6653-0.4361c0.2785-0.1156,0.5694-0.224,0.8584-0.2074     c0.5517,0.0035,1.0327,0.4571,1.2816,0.9982c-0.2801,0.2313-0.636,0.4123-1.0174,0.4927     c0.4336-0.0037,0.8697-0.1038,1.2756-0.3443c0.043-0.0255,0.0647-0.0781,0.0491-0.1281l-0.0051-0.0164     C22.324,20.2275,22.1537,19.91161,21.8968,19.63791z" style="fill:#30302F;"/></g><ellipse cx="20.65828" cy="19.974" rx="0.71472" ry="0.71477" style="fill:#30302F;" transform="matrix(0.00769 -0.99997 0.99997 0.00769 0.5259 40.47797)"/><ellipse cx="20.3802" cy="19.8917" rx="0.1465" ry="0.1465" style="fill:#FFFFFF;" transform="matrix(0.00751 -0.99997 0.99997 0.00751 0.33603 40.12198)"/></g></g></svg>